<?xml version="1.0" encoding="iso-8859-1"?>
<!-- Uploaded to: SVG Repo, www.svgrepo.com, Generator: SVG Repo Mixer Tools -->
<!DOCTYPE svg PUBLIC "-//W3C//DTD SVG 1.1//EN" "http://www.w3.org/Graphics/SVG/1.1/DTD/svg11.dtd">
<svg fill="#000000" version="1.1" id="Capa_1" xmlns="http://www.w3.org/2000/svg" xmlns:xlink="http://www.w3.org/1999/xlink" 
	 width="800px" height="800px" viewBox="0 0 463.758 463.759"
	 xml:space="preserve">
<g>
	<g>
		<path d="M204.027,463.18c13.01,0,23.552-10.543,23.552-23.552h31.402c0,13.009,10.539,23.552,23.552,23.552
			c13.008,0,23.552-10.543,23.552-23.552v-14.322c4.98-7.971,7.851-18.635,7.851-30.38v-27.992l96.812,0.882
			c2.917,0.032,5.325-4.705,5.378-10.58c0.056-5.87-2.269-10.655-5.19-10.672l-96.999-0.889v-25.268
			c0-16.971-5.927-32.191-15.701-40.034V169.195l72.362,70.454c2.544,2.477,7.918,1.082,12.021-3.125
			c4.092-4.21,5.351-9.626,2.806-12.099l-81.335-79.203c2.981-7.896,4.777-15.833,4.777-22.269l-2.521-34.346l96.924-68.188
			c2.905-2.043,2.525-7.594-0.857-12.391c-3.374-4.801-8.472-7.033-11.377-4.993l-86.517,60.859l-0.789-10.732
			C303.728,32.271,271.745,0,254.741,0h-14.919c-17,0-48.983,32.271-48.983,53.162l-2.464,30.473L55.396,67.755
			c-3.522-0.423-6.945,3.963-7.636,9.79c-0.701,5.825,1.591,10.896,5.118,11.311l133.786,15.983l-0.958,11.808
			c0,9.862,4.24,24.612,10.471,37.476v121.934c-12.387,4.195-20.92,18.422-23.024,35.842l-86.424-35.942
			c-5.252-2.284-11.399,0.244-13.738,5.627c-2.342,5.382,0.022,11.593,5.268,13.869l94.369,39.245v42.595l-82.848,66.928
			c-4.833,3.065-6.209,9.558-3.065,14.52c3.138,4.969,9.598,6.5,14.435,3.45l72.062-58.22c1.064,8.159,3.595,15.473,7.268,21.343
			v14.314C180.478,452.637,191.019,463.18,204.027,463.18z"/>
	</g>
</g>
</svg>